<svg xmlns="http://www.w3.org/2000/svg" xmlns:xlink="http://www.w3.org/1999/xlink" xmlns:svgjs="http://svgjs.dev/svgjs" version="1.1" width="2000" height="1247" viewBox="0 0 2000 1247"><g transform="matrix(1,0,0,1,-1.2121212121212466,0.504858299595071)"><svg xmlns="http://www.w3.org/2000/svg" xmlns:xlink="http://www.w3.org/1999/xlink" viewBox="0 0 396 247" data-background-color="#ffffff" preserveAspectRatio="xMidYMid meet" height="1247" width="2000"><g id="tight-bounds" transform="matrix(1,0,0,1,0.2400000000000091,-0.09999999999999432)"><svg viewBox="0 0 395.52 247.2" height="247.2" width="395.52"><g><svg/></g><g><svg viewBox="0 0 395.52 247.2" height="247.2" width="395.52"><g transform="matrix(1,0,0,1,144.2645701023891,47.215199999999996)"><svg viewBox="0 0 106.99085979522184 152.7696" height="152.7696" width="106.99085979522184"><g><svg viewBox="0 0 106.99085979522184 152.7696" height="152.7696" width="106.99085979522184"><g><svg viewBox="0 0 106.99085979522184 152.7696" height="152.7696" width="106.99085979522184"><g><svg viewBox="0 0 106.99085979522184 152.7696" height="152.7696" width="106.99085979522184"><g><svg viewBox="0 0 106.99085979522184 152.7696" height="152.7696" width="106.99085979522184"><g><svg viewBox="0 0 106.99085979522184 152.7696" height="152.7696" width="106.99085979522184"><g transform="matrix(1,0,0,1,0,0)"><svg width="106.99085979522184" viewBox="5.03000020980835 -35.77000045776367 25.049999237060547 35.77000045776367" height="152.7696" data-palette-color="#0063db"><path d="M22.61-19.78L22.61-19.78Q24.07-19.36 25.42-18.63 26.76-17.9 27.8-16.85 28.83-15.8 29.46-14.44 30.08-13.09 30.08-11.43L30.08-11.43Q30.08-9.45 29.11-7.42 28.15-5.4 26.27-3.75 24.39-2.1 21.61-1.05 18.82 0 15.19 0L15.19 0 5.03 0 5.03-35.77 16.19-35.77Q19.26-35.77 21.56-35.11 23.85-34.45 25.39-33.37 26.93-32.3 27.7-30.88 28.47-29.47 28.47-27.98L28.47-27.98Q28.47-26.71 27.98-25.55 27.49-24.39 26.68-23.35 25.88-22.31 24.82-21.41 23.75-20.51 22.61-19.78ZM11.08-16.5L11.08-4.3 15.77-4.3Q17.94-4.3 19.47-4.87 21-5.44 21.95-6.36 22.9-7.28 23.33-8.44 23.75-9.59 23.75-10.79L23.75-10.79Q23.75-12.28 23.17-13.35 22.58-14.43 21.51-15.12 20.43-15.82 18.95-16.16 17.46-16.5 15.65-16.5L15.65-16.5 11.08-16.5ZM11.08-20.68L19.04-20.68Q20.58-21.75 21.52-23.19 22.46-24.63 22.46-26.39L22.46-26.39Q22.46-28.74 20.62-30.1 18.77-31.47 15.38-31.47L15.38-31.47 11.08-31.47 11.08-20.68Z" opacity="1" transform="matrix(1,0,0,1,0,0)" fill="#0063db" class="undefined-text-0" data-fill-palette-color="primary" id="text-0"/></svg></g></svg></g></svg></g></svg></g></svg></g></svg></g></svg></g><path d="M68.954 41.215L68.954 0 316.154 0 316.154 247.2 68.954 247.2 68.954 205.985 82.731 205.985 82.731 233.423 302.377 233.423 302.377 13.777 82.731 13.777 82.731 41.215Z" fill="#0063db" stroke="transparent" data-fill-palette-color="primary"/></svg></g><defs/></svg><rect width="395.52" height="247.2" fill="none" stroke="none" visibility="hidden"/></g></svg></g></svg>